<svg id="Glyph" height="512" viewBox="0 0 64 64" width="512" xmlns="http://www.w3.org/2000/svg"><path d="m6.22 20.2 7.75 37.95a5.928 5.928 0 0 0 5.83 4.85h24.39a5.93 5.93 0 0 0 5.83-4.83l7.76-37.97zm17.04 34.34a.66.66 0 0 1 -.14.01 1 1 0 0 1 -.99-.86l-3.88-27.91a1 1 0 0 1 .86-1.12.979.979 0 0 1 1.12.85l3.88 27.91a.993.993 0 0 1 -.85 1.12zm9.74-.99a1 1 0 0 1 -2 0v-27.9a1 1 0 0 1 2 0zm8.87.14a1 1 0 0 1 -.99.86.66.66 0 0 1 -.14-.01.993.993 0 0 1 -.85-1.12l3.88-27.91a.981.981 0 0 1 1.12-.85 1 1 0 0 1 .86 1.12z"/><rect height="9.11" rx="2.67" width="61.24" x="1.38" y="9.09"/><path d="m44.757 11.1a1 1 0 0 1 -1-1v-5.591a1.516 1.516 0 0 0 -1.519-1.509h-20.486a1.511 1.511 0 0 0 -1.509 1.509v5.591a1 1 0 1 1 -2 0v-5.591a3.513 3.513 0 0 1 3.509-3.509h20.486a3.518 3.518 0 0 1 3.519 3.509v5.591a1 1 0 0 1 -1 1z"/></svg>